<svg width="197" height="21" viewBox="0 0 197 21" fill="none" xmlns="http://www.w3.org/2000/svg">
<g id="Group 48">
<g id="Icon 1">
<path id="Icon05" d="M2.13466 3.82402V6.54271H0V9.86687H2.13466V19.7463H6.51632V9.86786H9.45757C9.45757 9.86786 9.73314 8.27404 9.86669 6.53083H6.53434V4.25735C6.53434 3.918 7.0113 3.46093 7.48402 3.46093H9.87305V0.000244141H6.62549C2.02549 0.000244141 2.13466 3.32737 2.13466 3.82402Z" fill="white"/>
</g>
<g id="Icon 2">
<path id="Icon04" d="M73.7329 3.158C72.8386 3.56203 71.8915 3.82694 70.9222 3.94414C71.9396 3.32613 72.7046 2.34608 73.0744 1.1871C72.1105 1.76754 71.0591 2.17638 69.9643 2.39655C69.5032 1.89698 68.9486 1.49981 68.3343 1.22928C67.72 0.958748 67.0589 0.820521 66.3912 0.823032C63.6879 0.823032 61.4964 3.0568 61.4964 5.80891C61.4964 6.19889 61.5393 6.58024 61.6228 6.94431C59.6837 6.8489 57.7851 6.33639 56.0482 5.43946C54.3112 4.54254 52.7741 3.2809 51.5349 1.73505C51.1004 2.4933 50.8721 3.3589 50.874 4.24033C50.8748 5.06469 51.0742 5.87584 51.4541 6.60047C51.834 7.32511 52.3825 7.94039 53.05 8.39071C52.2739 8.36479 51.5146 8.15045 50.8334 7.765V7.82671C50.8334 10.2431 52.5215 12.2585 54.7584 12.7176C54.338 12.833 53.9049 12.8914 53.4699 12.8916C53.1538 12.8916 52.8472 12.8607 52.5477 12.799C52.8676 13.7961 53.4796 14.6654 54.2988 15.2862C55.1181 15.907 56.1039 16.2485 57.1193 16.2632C55.3776 17.6511 53.2395 18.4008 51.041 18.3946C50.6449 18.3946 50.256 18.3699 49.873 18.3254C52.1174 19.7949 54.7197 20.5731 57.3758 20.5691C66.3793 20.5691 71.3016 12.9706 71.3016 6.38155L71.2849 5.7361C72.2451 5.03717 73.0746 4.16363 73.7329 3.158Z" fill="white"/>
</g>
<g id="Icon 4">
<path id="Icon02" d="M187.31 13.6041C186.781 16.4357 186.138 19.151 184.228 20.5689C183.639 16.2892 185.094 13.0743 185.769 9.66207C184.617 7.67807 185.908 3.68411 188.336 4.66779C191.325 5.87897 185.748 12.0449 189.492 12.8157C193.401 13.6197 194.998 5.87377 192.574 3.35379C189.071 -0.282851 182.378 3.27172 183.201 8.47894C183.402 9.75244 184.686 10.1388 183.715 11.8964C181.473 11.3864 180.804 9.57689 180.891 7.16389C181.029 3.21667 184.357 0.45154 187.695 0.0692829C191.916 -0.414771 195.878 1.65544 196.424 5.72004C197.041 10.3071 194.519 15.2765 190.006 14.9181C188.783 14.8215 188.268 14.2014 187.31 13.6041Z" fill="white"/>
</g>
<g id="Icon 3">
<path id="Icon01" d="M137.49 8.06299V4.44288H135.793V8.06299H132.399V9.87305H135.793V13.4932H137.49V9.87305H140.884V8.06299H137.49ZM122.218 8.06299V11.6831H127.018C126.666 12.7411 126.015 13.657 125.156 14.3051C124.296 14.9532 123.27 15.3019 122.218 15.3032C120.868 15.3013 119.574 14.7286 118.62 13.7107C117.665 12.6927 117.129 11.3126 117.127 9.87305C117.129 8.43347 117.665 7.05339 118.62 6.03545C119.574 5.01751 120.868 4.44479 122.218 4.44288C123.434 4.44288 124.605 4.9077 125.515 5.75336L127.743 3.02379C126.211 1.60261 124.248 0.820801 122.218 0.822758C119.968 0.82544 117.811 1.77981 116.221 3.47649C114.63 5.17317 113.735 7.47359 113.733 9.87305C113.735 12.2725 114.63 14.5729 116.221 16.2696C117.811 17.9663 119.968 18.9207 122.218 18.9233C124.467 18.9207 126.624 17.9663 128.214 16.2696C129.805 14.5729 130.7 12.2725 130.702 9.87305V8.06299H122.218Z" fill="white"/>
</g>
</g>
</svg>
